<svg xmlns="http://www.w3.org/2000/svg" xmlns:xlink="http://www.w3.org/1999/xlink" width="330.324" height="69.743" viewBox="0 0 330.324 69.743">
  <defs>
    <linearGradient id="linear-gradient" x1="1.698" y1="-4.015" x2="2.721" y2="-4.015" gradientUnits="objectBoundingBox">
      <stop offset="0" stop-color="#d38b27"/>
      <stop offset="0.101" stop-color="#d68e2c"/>
      <stop offset="0.233" stop-color="#e0993d"/>
      <stop offset="0.383" stop-color="#efab58"/>
      <stop offset="0.5" stop-color="#ffbd73"/>
      <stop offset="0.585" stop-color="#fab76d"/>
      <stop offset="0.69" stop-color="#efa85e"/>
      <stop offset="0.806" stop-color="#db9045"/>
      <stop offset="0.928" stop-color="#c06d22"/>
      <stop offset="1" stop-color="#ae560b"/>
    </linearGradient>
  </defs>
  <g id="Group_39" data-name="Group 39" transform="translate(-65.021)">
    <g id="Group_16" data-name="Group 16" transform="translate(142.289)" opacity="0.559">
      <path id="Path_55" data-name="Path 55" d="M198.729,190.035q-.38-8.432-5.851-8.72a2.5,2.5,0,0,1,2.482-1.932q4.909-.222,6.771,5.469a17.55,17.55,0,0,1,.726,4.246,21.958,21.958,0,0,1-2.51,10.7q-5.393,10.94-18.3,13.983a32.685,32.685,0,0,1-6.43.93,29.632,29.632,0,0,1-4.437-.011,32.747,32.747,0,0,1-6.945,19.138q10.176,9.809,20.425,9.346,6.186-.28,9.176-2.873t2.843-5.692a.69.69,0,0,1,.451-.662,1.011,1.011,0,0,1,.907-.041.862.862,0,0,1,.466.834q.161,3.523-3.369,7.106t-10.465,3.894q-11.1.5-22.77-9.133a28.266,28.266,0,0,1-19,8.026q-8.645.39-13.2-3.417a13.77,13.77,0,0,1-4.859-10.476,19.1,19.1,0,0,1,3.982-12.479,63.364,63.364,0,0,1,11.926-11.823,40.87,40.87,0,0,1-2.673-11.862,29.431,29.431,0,0,1,.87-9.131,11.612,11.612,0,0,1,4.835-6.582,17.2,17.2,0,0,1,9.18-2.819q5.441-.248,8.119,2.145a8.934,8.934,0,0,1,2.864,6.556,9.376,9.376,0,0,1-.754,4.633q-.886,1.753-1.429,2.74a12.1,12.1,0,0,1-1.818,2.329q-1.28,1.338-1.992,2.067t-2.469,2.2c-1.169.978-1.994,1.659-2.473,2.035s-1.431,1.1-2.845,2.162-2.325,1.781-2.738,2.155A68.138,68.138,0,0,0,162.55,232.1a31.708,31.708,0,0,0,6.361-17.829q-7.459-1.8-7.708-7.246a3.714,3.714,0,0,1,1.981-3.511,5.689,5.689,0,0,1,2.905-.774c1.246-.058,2.37.786,3.378,2.521a15.092,15.092,0,0,1,1.7,6.877,21.619,21.619,0,0,0,3.965.142q14.515-.654,20.662-11.417A19.678,19.678,0,0,0,198.729,190.035ZM143.1,242.069a24.883,24.883,0,0,0,16.9-7.072,72.521,72.521,0,0,1-18.049-25.5q-11.833,10.479-11.308,22.009a11.411,11.411,0,0,0,3.189,7.878Q136.8,242.352,143.1,242.069Zm11.679-63.526Q144.64,179,145.3,193.516a46.84,46.84,0,0,0,1.238,8.5,81.078,81.078,0,0,0,10.7-9.414,11.714,11.714,0,0,0,3.359-8.546Q160.333,178.29,154.784,178.543Zm10.938,26.672q-1.921.087-1.822,2.329.113,2.456,5,4.158Q168.387,205.1,165.722,205.215Z" transform="translate(-124.819 -176.035)" fill="url(#linear-gradient)"/>
    </g>
    <text id="ADITI" transform="translate(105.021 31)" fill="#fba959" font-size="29" font-family="THICCCBOI-Light, THICCCBOI" font-weight="300" letter-spacing="0.12em"><tspan x="-39.991" y="0">ADITI</tspan></text>
    <text id="SUKHJIVAN" transform="translate(307.345 54.243)" fill="#fba959" font-size="29" font-family="THICCCBOI-Light, THICCCBOI" font-weight="300" letter-spacing="0.12em"><tspan x="-87.174" y="0">SUKHJIVAN</tspan></text>
  </g>
</svg>
