<svg xmlns="http://www.w3.org/2000/svg" xmlns:xlink="http://www.w3.org/1999/xlink" width="326.473" height="69.743" viewBox="0 0 326.473 69.743">
  <defs>
    <linearGradient id="linear-gradient" x1="1.698" y1="-4.015" x2="2.721" y2="-4.015" gradientUnits="objectBoundingBox">
      <stop offset="0" stop-color="#d38b27"/>
      <stop offset="0.101" stop-color="#d68e2c"/>
      <stop offset="0.233" stop-color="#e0993d"/>
      <stop offset="0.383" stop-color="#efab58"/>
      <stop offset="0.5" stop-color="#ffbd73"/>
      <stop offset="0.585" stop-color="#fab76d"/>
      <stop offset="0.69" stop-color="#efa85e"/>
      <stop offset="0.806" stop-color="#db9045"/>
      <stop offset="0.928" stop-color="#c06d22"/>
      <stop offset="1" stop-color="#ae560b"/>
    </linearGradient>
  </defs>
  <g id="Group_39" data-name="Group 39" transform="translate(-65.552)">
    <g id="Group_16" data-name="Group 16" transform="translate(142.289)" opacity="0.559">
      <path id="Path_55" data-name="Path 55" d="M198.729,190.035q-.38-8.432-5.851-8.72a2.5,2.5,0,0,1,2.482-1.932q4.909-.222,6.771,5.469a17.55,17.55,0,0,1,.726,4.246,21.958,21.958,0,0,1-2.51,10.7q-5.393,10.94-18.3,13.983a32.685,32.685,0,0,1-6.43.93,29.632,29.632,0,0,1-4.437-.011,32.747,32.747,0,0,1-6.945,19.138q10.176,9.809,20.425,9.346,6.186-.28,9.176-2.873t2.843-5.692a.69.69,0,0,1,.451-.662,1.011,1.011,0,0,1,.907-.041.862.862,0,0,1,.466.834q.161,3.523-3.369,7.106t-10.465,3.894q-11.1.5-22.77-9.133a28.266,28.266,0,0,1-19,8.026q-8.645.39-13.2-3.417a13.77,13.77,0,0,1-4.859-10.476,19.1,19.1,0,0,1,3.982-12.479,63.364,63.364,0,0,1,11.926-11.823,40.87,40.87,0,0,1-2.673-11.862,29.431,29.431,0,0,1,.87-9.131,11.612,11.612,0,0,1,4.835-6.582,17.2,17.2,0,0,1,9.18-2.819q5.441-.248,8.119,2.145a8.934,8.934,0,0,1,2.864,6.556,9.376,9.376,0,0,1-.754,4.633q-.886,1.753-1.429,2.74a12.1,12.1,0,0,1-1.818,2.329q-1.28,1.338-1.992,2.067t-2.469,2.2c-1.169.978-1.994,1.659-2.473,2.035s-1.431,1.1-2.845,2.162-2.325,1.781-2.738,2.155A68.138,68.138,0,0,0,162.55,232.1a31.708,31.708,0,0,0,6.361-17.829q-7.459-1.8-7.708-7.246a3.714,3.714,0,0,1,1.981-3.511,5.689,5.689,0,0,1,2.905-.774c1.246-.058,2.37.786,3.378,2.521a15.092,15.092,0,0,1,1.7,6.877,21.619,21.619,0,0,0,3.965.142q14.515-.654,20.662-11.417A19.678,19.678,0,0,0,198.729,190.035ZM143.1,242.069a24.883,24.883,0,0,0,16.9-7.072,72.521,72.521,0,0,1-18.049-25.5q-11.833,10.479-11.308,22.009a11.411,11.411,0,0,0,3.189,7.878Q136.8,242.352,143.1,242.069Zm11.679-63.526Q144.64,179,145.3,193.516a46.84,46.84,0,0,0,1.238,8.5,81.078,81.078,0,0,0,10.7-9.414,11.714,11.714,0,0,0,3.359-8.546Q160.333,178.29,154.784,178.543Zm10.938,26.672q-1.921.087-1.822,2.329.113,2.456,5,4.158Q168.387,205.1,165.722,205.215Z" transform="translate(-124.819 -176.035)" fill="url(#linear-gradient)"/>
    </g>
    <path id="Path_135" data-name="Path 135" d="M-22.33,0h-1.6L-25.9-5.191h-9.947l-2,5.191h-1.624l7.743-20.3h1.653Zm-8.555-18.212L-35.322-6.583h8.874ZM-9.57-20.3a10.488,10.488,0,0,1,5.22,1.334A9.917,9.917,0,0,1-.594-15.3,10,10,0,0,1,.783-10.121,9.844,9.844,0,0,1-.594-4.973,9.984,9.984,0,0,1-4.35-1.334,10.488,10.488,0,0,1-9.57,0h-6.873V-20.3Zm0,18.879A8.931,8.931,0,0,0-5.1-2.566,8.52,8.52,0,0,0-1.9-5.7,8.526,8.526,0,0,0-.725-10.121,8.6,8.6,0,0,0-1.9-14.558a8.6,8.6,0,0,0-3.2-3.161,8.844,8.844,0,0,0-4.466-1.16h-5.365V-1.421ZM7.859,0V-20.3H9.338V0ZM29.87-20.3v1.421H23.4V0H21.924V-18.879H15.457V-20.3ZM36.018,0V-20.3H37.5V0Z" transform="translate(105.021 31)" fill="#fba959"/>
    <path id="Path_136" data-name="Path 136" d="M-78.416.319A8.6,8.6,0,0,1-83.245-.986a6.4,6.4,0,0,1-2.682-3.509l1.305-.754a5.783,5.783,0,0,0,2.2,2.987,6.749,6.749,0,0,0,4,1.131,6.507,6.507,0,0,0,2.929-.594,4.147,4.147,0,0,0,1.769-1.566,3.978,3.978,0,0,0,.58-2.074,2.86,2.86,0,0,0-1.421-2.479,16.539,16.539,0,0,0-4.147-1.783q-2.349-.754-3.538-1.262A5.254,5.254,0,0,1-84.26-12.4a4.081,4.081,0,0,1-.826-2.682,5.178,5.178,0,0,1,.826-2.929,5.493,5.493,0,0,1,2.233-1.929,7.122,7.122,0,0,1,3.146-.682,7.03,7.03,0,0,1,4.1,1.175,7.177,7.177,0,0,1,2.537,3.117l-1.305.667a5.541,5.541,0,0,0-2.015-2.552,5.674,5.674,0,0,0-3.321-.957,5.272,5.272,0,0,0-2.566.58,4.119,4.119,0,0,0-1.609,1.508,3.8,3.8,0,0,0-.551,1.972,2.71,2.71,0,0,0,.652,1.885,4.49,4.49,0,0,0,1.61,1.131q.957.406,2.987,1.073,2.407.783,3.683,1.348a5.822,5.822,0,0,1,2.146,1.609,4.117,4.117,0,0,1,.87,2.726A5.3,5.3,0,0,1-72.5-2.349,5.465,5.465,0,0,1-74.878-.377,8.5,8.5,0,0,1-78.416.319ZM-52.287-20.3h1.508V-6.873a7.759,7.759,0,0,1-.884,3.77A6.2,6.2,0,0,1-54.2-.58a7.949,7.949,0,0,1-3.857.9A7.865,7.865,0,0,1-61.9-.58,6.217,6.217,0,0,1-64.424-3.1a7.759,7.759,0,0,1-.884-3.77V-20.3H-63.8V-6.873a5.727,5.727,0,0,0,1.508,4.147A5.6,5.6,0,0,0-58.058-1.16a5.662,5.662,0,0,0,4.277-1.552,5.748,5.748,0,0,0,1.494-4.161ZM-28.333-.058-30.218,0l-8.671-9.947-2.175,2.175V0h-1.508V-20.3h1.508V-9.918L-30.6-20.3h2.059l-9.28,9.28ZM-8.816-11.107V-20.3h1.508V0H-8.816V-9.715H-20.59V0H-22.1V-20.3h1.508v9.193ZM11.02-20.271h1.508V-5.858A6.358,6.358,0,0,1,11.7-2.552,5.481,5.481,0,0,1,9.41-.42,7.264,7.264,0,0,1,6.09.319a7.464,7.464,0,0,1-3.683-.87A6.3,6.3,0,0,1-.087-3.132l1.218-.754A5.784,5.784,0,0,0,3.19-1.725a5.916,5.916,0,0,0,2.929.653A5.11,5.11,0,0,0,9.657-2.291,4.535,4.535,0,0,0,11.02-5.858ZM20.764,0V-20.3h1.479V0ZM37.091-2l6.873-18.3h1.595L37.9,0H36.279L28.594-20.3h1.624ZM64.467,0h-1.6L60.9-5.191H50.953L48.952,0H47.328l7.743-20.3h1.653ZM55.912-18.212,51.475-6.583h8.874ZM83.172-2.784V-20.3H84.68V0H83.259L71.63-17.864V0H70.122V-20.3h1.537Z" transform="translate(307.345 54.243)" fill="#fba959"/>
  </g>
</svg>
