<svg id="Group_15" data-name="Group 15" xmlns="http://www.w3.org/2000/svg" xmlns:xlink="http://www.w3.org/1999/xlink" width="164.881" height="45.868" viewBox="0 0 164.881 45.868">
  <defs>
    <linearGradient id="linear-gradient" x1="0.614" y1="1.348" x2="0.332" y2="-0.412" gradientUnits="objectBoundingBox">
      <stop offset="0" stop-color="#d38b27"/>
      <stop offset="0.101" stop-color="#d68e2c"/>
      <stop offset="0.233" stop-color="#e0993d"/>
      <stop offset="0.383" stop-color="#efab58"/>
      <stop offset="0.5" stop-color="#ffbd73"/>
      <stop offset="0.585" stop-color="#fab76d"/>
      <stop offset="0.69" stop-color="#efa85e"/>
      <stop offset="0.806" stop-color="#db9045"/>
      <stop offset="0.928" stop-color="#c06d22"/>
      <stop offset="1" stop-color="#ae560b"/>
    </linearGradient>
  </defs>
  <g id="Group_14" data-name="Group 14" transform="translate(0)">
    <path id="Union_3" data-name="Union 3" d="M2.157,43.1a10.645,10.645,0,0,1-1.9-6.151,19.088,19.088,0,0,1,.965-6.209A11.39,11.39,0,0,1,0,25.313a12.981,12.981,0,0,1,.986-5.185,14.861,14.861,0,0,1,2.155-3.68A8.762,8.762,0,0,1,6,14.218a7.993,7.993,0,0,1,3.587-.836,5.945,5.945,0,0,1,4.276,1.523l4.868-4.089a22.5,22.5,0,0,1-.149-2.565Q18.585,0,22.935,0a2.122,2.122,0,0,1,1.746.781,3.436,3.436,0,0,1,.707,2.008,6.215,6.215,0,0,1-1.134,3.567,22.3,22.3,0,0,1-3.438,3.9,86.48,86.48,0,0,1,1.153,10.463,20.278,20.278,0,0,1-.706,5.353,15.517,15.517,0,0,1-2.157,4.7,9.7,9.7,0,0,1-3.977,3.309,13.667,13.667,0,0,1-5.874,1.189A8.49,8.49,0,0,1,2.008,32a19.427,19.427,0,0,0-.67,5.334,9.576,9.576,0,0,0,1.58,5.39,4.72,4.72,0,0,0,4.071,2.4q.185,0,.2.373c.013.247-.055.371-.2.371A5.667,5.667,0,0,1,2.157,43.1ZM6.542,23.418a22.694,22.694,0,0,0-4.2,7.433A7.257,7.257,0,0,0,9,34.271,9.867,9.867,0,0,0,13.884,33.1a8.639,8.639,0,0,0,3.289-3.178,18.371,18.371,0,0,0,2.343-9.553q0-1.375-.669-8.363L14.5,15.612a5.233,5.233,0,0,1,1.041,3.178A8.712,8.712,0,0,1,15,21.95,5.746,5.746,0,0,1,13.1,24.4a4.954,4.954,0,0,1-3.14,1.059.824.824,0,0,1-.576-.186,1.016,1.016,0,0,1-.278-.595,3.915,3.915,0,0,0,2.936-1.487,6.709,6.709,0,0,0,1.933-4.684,5.48,5.48,0,0,0-.409-2.081A60.277,60.277,0,0,0,6.542,23.418Zm-.558-8.029a10.463,10.463,0,0,0-4.423,6.245,12.473,12.473,0,0,0-.594,3.828,11.319,11.319,0,0,0,.706,4.052q2.565-6.43,11.337-13.864a4.275,4.275,0,0,0-3.271-1.264A7.155,7.155,0,0,0,5.985,15.389Zm14.5-9.033a25.606,25.606,0,0,0,.186,2.677q3.68-3.606,3.68-6.1,0-1.932-1.412-1.933Q20.481,1,20.481,6.356Zm70.172,23.43a2.2,2.2,0,0,1-.261-1.06,1.927,1.927,0,0,1,.744-1.282,3.072,3.072,0,0,1,2.193-.707,6.457,6.457,0,0,1,.837.056c.285.036.527.068.725.092a4.91,4.91,0,0,1,.819.205q.52.167.724.223c.136.036.409.137.818.3s.651.26.724.3.354.156.837.353a7.126,7.126,0,0,1,.762.336,17.107,17.107,0,0,0,3.086-6.468q-5.54-.372-7.956-4.46a9.707,9.707,0,0,1-1.3-4.907,12.967,12.967,0,0,1,.409-3.16,12.353,12.353,0,0,1,5.24-7.286,14.445,14.445,0,0,1,8.1-2.267,15.1,15.1,0,0,1,5.854,1.078,10.762,10.762,0,0,1,4.125,2.881,14.632,14.632,0,0,1,2.473,4.144,13.783,13.783,0,0,1,.965,5.092,30.591,30.591,0,0,1-.427,5.148,16.69,16.69,0,0,1-1.635,4.851,20.959,20.959,0,0,1-2.77,4.145,11.72,11.72,0,0,1-3.772,2.882,11.277,11.277,0,0,1-5,1.078,17.055,17.055,0,0,1-6.133-1.3,8.275,8.275,0,0,1-5.129,1.6Q91.731,31.644,90.654,29.786Zm.929-1.189a1.287,1.287,0,0,0-.074.408q0,.707,1,1.171a7.013,7.013,0,0,0,2.863.464,5.482,5.482,0,0,0,3.531-1.376,16.01,16.01,0,0,0-5.334-1.6Q91.955,27.667,91.583,28.6Zm21.28-13.382a.339.339,0,0,1,.093.335,9.779,9.779,0,0,1-2.788,4.312,8.993,8.993,0,0,1-4.943,2.193q-1.191,5.018-3.606,7.36a15.832,15.832,0,0,0,5.166.966,8.358,8.358,0,0,0,4.164-1,10.054,10.054,0,0,0,3.084-2.713,21.7,21.7,0,0,0,2.341-3.922,17.749,17.749,0,0,0,1.45-4.646,29.346,29.346,0,0,0,.409-4.869,14.193,14.193,0,0,0-.762-4.647,13.9,13.9,0,0,0-2.064-3.921,8.936,8.936,0,0,0-3.531-2.714,12.293,12.293,0,0,0-5.092-1q-6.1,0-9.331,4.312a10.76,10.76,0,0,0-2.266,6.691q0,5.054,3.456,7.657a8.583,8.583,0,0,0,4.274,1.635q.446-1.783,1.059-4.813t1.059-4.981q.446-1.952,1.115-3.995,1.375-4.128,4.127-4.127a.7.7,0,0,1,.705.482l.037.15q-2.378,0-3.308,3.865a36.238,36.238,0,0,0-.762,3.866q-.278,1.969-.669,4.776t-.837,4.74a8.034,8.034,0,0,0,4.367-1.97,8.567,8.567,0,0,0,2.472-3.866.27.27,0,0,1,.242-.223.556.556,0,0,1,.1-.009A.352.352,0,0,1,112.862,15.215ZM34.606,26.392a19.165,19.165,0,0,1,.3-3.123h-.26q-3.792,7.063-6.357,7.062-2.936,0-2.937-4.423a14.1,14.1,0,0,1,1.338-5.613q1.859-4.126,4.721-5.39a5.339,5.339,0,0,1,2.026-.409,2.187,2.187,0,0,1,1.617.595,1.852,1.852,0,0,1,.595,1.338c0,.223-.117.329-.353.316s-.353-.13-.353-.354a.786.786,0,0,0-.353-.613,1.623,1.623,0,0,0-1.022-.279q-2.342,0-4.238,4.2a17.828,17.828,0,0,0-1.785,7.4q0,2.155.949,2.155t2.3-1.617a21.968,21.968,0,0,0,2.51-3.773,52.476,52.476,0,0,0,2.936-5.835q.446-1.3.967-1.3.927,0,.929,1.561a6.488,6.488,0,0,1-.112,1.115q-1.226,5.947-1.32,6.876c-.062.62-.093,1.065-.093,1.339q0,1.784.855,1.783.966,0,2.715-2.565a42.435,42.435,0,0,0,3.01-5.129l1.264-2.566h.018q.37-1.366.838-3.01.223-.781.706-.781.669,0,.966.967a3.03,3.03,0,0,1,.15,1.021,5.976,5.976,0,0,1-.224,1.469q-1.412,5.317-1.6,6.413a11.451,11.451,0,0,0-.186,1.877q0,2.193,1.376,2.193,2.006,0,3.735-3.345a24.113,24.113,0,0,0,2.36-7.1,2.911,2.911,0,0,1-1.468-1.579,4.916,4.916,0,0,1-.354-1.525,2.77,2.77,0,0,1,.15-.948q.3-.965,1.115-.965,1.6,0,1.6,3.084a9.4,9.4,0,0,1-.075,1.153,5.131,5.131,0,0,0,1.449.186,1.793,1.793,0,0,0,.73-.154,10.14,10.14,0,0,1,1.426-1.829c0-.008,0-.017,0-.025,0-.1.061-.167.186-.2a.561.561,0,0,1,.073-.017A5.478,5.478,0,0,1,61.2,14.5q2.378,0,2.379,2.6A6.957,6.957,0,0,1,62.1,21.113a6.1,6.1,0,0,1-4.869,2.862.489.489,0,0,1-.52-.372l-.038-.15q1.933,0,3.7-2.545a8.079,8.079,0,0,0,1.766-4.256q0-1.152-.892-1.153-1.969,0-3.679,3.456a13.516,13.516,0,0,0-1.413,5.91q0,4.5,3.2,4.5a4.081,4.081,0,0,0,2.509-1.059,13.147,13.147,0,0,0,2.4-2.545A37.137,37.137,0,0,0,67.6,20.183l.482-1.041h1A37.719,37.719,0,0,1,67.224,22.8a33.943,33.943,0,0,1-2.34,3.661,14.714,14.714,0,0,1-2.639,2.694,4.756,4.756,0,0,1-2.9,1.209q-5.5,0-5.5-6.171a10.888,10.888,0,0,1,1.246-4.941,4.292,4.292,0,0,1-.561.035,4.774,4.774,0,0,1-1.078-.112,18.657,18.657,0,0,1-3.867,9.329,4.147,4.147,0,0,1-2.972,1.785q-2.676,0-3.272-1.785a6.2,6.2,0,0,1-.335-2.044,13.4,13.4,0,0,1,.3-2.565q.075-.373.174-.817Q42.444,25.024,41.5,26.5A16.922,16.922,0,0,1,39.382,29.2a3.182,3.182,0,0,1-2.026,1.208Q34.605,30.405,34.606,26.392ZM142.041,29.58a3.1,3.1,0,0,1-.93-1.858,14.913,14.913,0,0,1-.2-2.472,19.182,19.182,0,0,1,.292-2.912l-.292.551q-1.042,1.95-1.988,3.439a17.023,17.023,0,0,1-2.119,2.7,3.182,3.182,0,0,1-2.026,1.207q-2.752,0-2.75-4.014a19.319,19.319,0,0,1,.3-3.122h-.259q-3.792,7.063-6.356,7.062-2.938,0-2.938-4.423a14.083,14.083,0,0,1,1.339-5.613q1.857-4.126,4.719-5.39a5.351,5.351,0,0,1,2.026-.408,2.192,2.192,0,0,1,1.618.593,1.858,1.858,0,0,1,.593,1.339c0,.222-.117.329-.353.315s-.353-.129-.353-.353a.785.785,0,0,0-.353-.613,1.617,1.617,0,0,0-1.022-.28q-2.342,0-4.237,4.2a17.8,17.8,0,0,0-1.785,7.4q0,2.157.948,2.156t2.3-1.616a21.944,21.944,0,0,0,2.509-3.773,52.611,52.611,0,0,0,2.937-5.836q.445-1.3.965-1.3.93,0,.931,1.561a6.517,6.517,0,0,1-.113,1.115q-1.227,5.947-1.32,6.876t-.093,1.339q0,1.783.856,1.784.965,0,2.713-2.565a42.687,42.687,0,0,0,3.011-5.13l1.236-2.511q.459-2.078,1.142-4.7h-1.673a.453.453,0,0,1-.409-.169.547.547,0,0,1-.112-.278c0-.273.174-.409.52-.409h1.933q.185-.743.484-1.858l.519-1.933q.225-.856.391-1.561t.649-.707q.633,0,.892.966a3.862,3.862,0,0,1,.113,1,6.839,6.839,0,0,1-.224,1.524l-.706,2.565h2.3a.492.492,0,0,1,.464.222.385.385,0,0,1,0,.429.508.508,0,0,1-.464.2h-2.527q-2.307,8.66-2.3,12.266,0,2.64,1.189,2.639.966,0,2.714-2.565a42.784,42.784,0,0,0,3.011-5.13l.556-1.129a13.371,13.371,0,0,1,1-2.1q2.3-3.976,5.688-3.977,2.378,0,2.378,2.6a6.96,6.96,0,0,1-1.487,4.015,6.1,6.1,0,0,1-4.869,2.861.489.489,0,0,1-.52-.371l-.037-.149q1.932,0,3.7-2.546a8.07,8.07,0,0,0,1.765-4.256c0-.767-.3-1.152-.892-1.152q-1.969,0-3.679,3.457a13.513,13.513,0,0,0-1.413,5.91q0,4.5,3.2,4.5a4.088,4.088,0,0,0,2.509-1.059,13.079,13.079,0,0,0,2.4-2.546,37.2,37.2,0,0,0,3.345-5.576l.482-1.041h1a37.744,37.744,0,0,1-1.858,3.661,34.12,34.12,0,0,1-2.341,3.662,14.718,14.718,0,0,1-2.639,2.7,4.761,4.761,0,0,1-2.9,1.207q-5.5,0-5.5-6.169,0-.2.008-.391-.823,1.5-1.586,2.7a16.89,16.89,0,0,1-2.119,2.7,3.231,3.231,0,0,1-2.174,1.207A2.5,2.5,0,0,1,142.041,29.58Zm-60.989-3.3a13.443,13.443,0,0,1,.555-3.136,14.156,14.156,0,0,0,.556-2.683c0-.4-.158-.6-.471-.6q-.546,0-1.2.922a11.043,11.043,0,0,0-1.224,2.354q-.941,2.3-1.412,3.842c-.075.251-.182.376-.321.376-.225,0-.394-.137-.508-.414a1.244,1.244,0,0,1-.094-.48,5.421,5.421,0,0,1,.15-.941q.135-.614.427-2.06l-.124.234q-.528.989-1.007,1.741A8.513,8.513,0,0,1,75.3,26.8a1.632,1.632,0,0,1-1.1.613,1.268,1.268,0,0,1-.875-.33,1.565,1.565,0,0,1-.471-.941,7.4,7.4,0,0,1-.1-1.252A26.988,26.988,0,0,1,73.8,19.35h-.847a.23.23,0,0,1-.207-.085.276.276,0,0,1-.057-.141c0-.138.089-.207.263-.207h.979c.064-.251.144-.565.245-.941L74.444,17c.075-.289.141-.551.2-.791s.167-.358.33-.358c.213,0,.364.163.451.49a1.945,1.945,0,0,1,.057.509,3.484,3.484,0,0,1-.113.771l-.358,1.3h1.168a.247.247,0,0,1,.235.113.193.193,0,0,1,0,.217.256.256,0,0,1-.235.1H74.9a28.341,28.341,0,0,0-1.167,6.214q0,1.338.6,1.337.489,0,1.375-1.3A21.709,21.709,0,0,0,77.232,23l.623-1.266q.176-.855.318-1.511.244-1.139.565-2.561t.611-2.315a16.55,16.55,0,0,1,.668-1.724q.717-1.619,1.639-1.619.847,0,.847,1.129a4.469,4.469,0,0,1-.057.659,9.806,9.806,0,0,1-1.487,3.69,4.467,4.467,0,0,1-1.639,1.733q-.377,2.034-.659,3.691h.132q1.581-3.521,3.2-3.521a1.185,1.185,0,0,1,.913.357,1.4,1.4,0,0,1,.329.979,16.059,16.059,0,0,1-.489,2.721,15.358,15.358,0,0,0-.489,2.928q0,1.223.451,1.224a.355.355,0,0,1-.169.263.624.624,0,0,1-.4.132Q81.053,27.992,81.053,26.279Zm-1.619-7.627A5.829,5.829,0,0,0,81,16.543a8.157,8.157,0,0,0,1.074-3.37q0-.6-.339-.734Q80.619,12.439,79.433,18.652Zm4.284,5.612a5.7,5.7,0,0,1,.847-2.9,3.364,3.364,0,0,1,2.882-2.015q1.2,0,1.2,1.318A3.521,3.521,0,0,1,87.9,22.7a3.086,3.086,0,0,1-2.468,1.45.249.249,0,0,1-.264-.188l-.018-.075a2.422,2.422,0,0,0,1.873-1.29,4.081,4.081,0,0,0,.9-2.155c0-.388-.151-.584-.452-.584q-1,0-1.865,1.751a6.861,6.861,0,0,0-.715,2.993q0,2.279,1.619,2.279a2.078,2.078,0,0,0,1.271-.536,6.7,6.7,0,0,0,1.215-1.29,18.9,18.9,0,0,0,1.695-2.825l.244-.527h.509a19.726,19.726,0,0,1-.941,1.855,17.4,17.4,0,0,1-1.187,1.855,7.447,7.447,0,0,1-1.337,1.365,2.409,2.409,0,0,1-1.469.612Q83.716,27.389,83.718,24.264Z" fill="url(#linear-gradient)"/>
  </g>
</svg>
