<svg xmlns="http://www.w3.org/2000/svg" xmlns:xlink="http://www.w3.org/1999/xlink" width="29.105" height="8.937" viewBox="0 0 29.105 8.937">
  <defs>
    <linearGradient id="linear-gradient" x1="0.605" y1="1.343" x2="0.357" y2="-0.055" gradientUnits="objectBoundingBox">
      <stop offset="0" stop-color="#d38b27"/>
      <stop offset="0.101" stop-color="#d68e2c"/>
      <stop offset="0.233" stop-color="#e0993d"/>
      <stop offset="0.383" stop-color="#efab58"/>
      <stop offset="0.5" stop-color="#ffbd73"/>
      <stop offset="0.585" stop-color="#fab76d"/>
      <stop offset="0.69" stop-color="#efa85e"/>
      <stop offset="0.806" stop-color="#db9045"/>
      <stop offset="0.928" stop-color="#c06d22"/>
      <stop offset="1" stop-color="#ae560b"/>
    </linearGradient>
  </defs>
  <path id="Path_56" data-name="Path 56" d="M146.4,85.343a9.731,9.731,0,0,1,1.5.769,9.953,9.953,0,0,1,1.464,1.4,1.058,1.058,0,0,1,.124,1.27,1.089,1.089,0,0,1-1.208.41,5.142,5.142,0,0,1-2.745-1.369c-.673-.589-1.234-1.3-1.854-1.956-.089-.094-.242-.222-.338-.2-1.63.349-3.255.717-4.854,1.2.707.156,1.419.293,2.119.474a2.883,2.883,0,0,1,1.67,1.042.835.835,0,0,1-.441,1.417,3.114,3.114,0,0,1-2.436-.268c-1.009-.513-1.98-1.1-2.935-1.714a.607.607,0,0,0-.676-.079c-.812.4-1.626.785-2.439,1.177a1.687,1.687,0,0,1-.411.179,1.941,1.941,0,0,1-.462-.028c.072-.132.111-.325.223-.389.884-.5,1.767-1.017,2.684-1.46a1.521,1.521,0,0,0,.807-.813c.26-.6.546-1.186.864-1.754a4.824,4.824,0,0,1,2.358-2.095.954.954,0,0,1,1.13.06.964.964,0,0,1,.077,1.169,5.149,5.149,0,0,1-1.741,1.968.775.775,0,0,0-.266.275c.128-.027.258-.049.386-.079,1.419-.323,2.841-.633,4.253-.986a1.426,1.426,0,0,0,.717-.47,10.889,10.889,0,0,1,3.649-3.082,4.474,4.474,0,0,1,1.336-.39,1.021,1.021,0,0,1,1.123.49,1.094,1.094,0,0,1-.171,1.22,5.278,5.278,0,0,1-2.03,1.594l-.3.16c1.313.045,2.565.1,3.816.12a.819.819,0,0,0,.458-.26,12.377,12.377,0,0,1,3.66-2.34,6.329,6.329,0,0,1,1.648-.366.976.976,0,0,1,1.061.612,1.068,1.068,0,0,1-.375,1.17,5.645,5.645,0,0,1-2.47,1.261,1.686,1.686,0,0,0-.525.234c.724.118,1.451.223,2.172.357,1.383.256,2.761.529,4.141.8a.646.646,0,0,1,.238.076,1.13,1.13,0,0,1,.182.2c-.088.052-.182.156-.262.147-.415-.048-.827-.13-1.241-.19-1.741-.256-3.48-.5-5.219-.765a2.749,2.749,0,0,1-.478-.159l.012.154c.53.476,1.087.924,1.578,1.437a2.444,2.444,0,0,1,.528.954,1.2,1.2,0,0,1-1.2,1.61,2.384,2.384,0,0,1-1.823-.818,8.85,8.85,0,0,1-1.911-3.1.566.566,0,0,0-.383-.334c-1.523-.02-3.046-.007-4.57,0A.952.952,0,0,0,146.4,85.343Zm-2.03-.576a7.564,7.564,0,0,0,4.1-1.346,4.2,4.2,0,0,0,1.081-1.087c.278-.394.056-.737-.43-.719a2.775,2.775,0,0,0-.968.216A10.051,10.051,0,0,0,144.375,84.768Zm-.12.827a8.176,8.176,0,0,0,3.564,2.877c.337.122.936.17,1.1-.019.307-.358-.069-.771-.339-1.083A5.63,5.63,0,0,0,144.254,85.594Zm8.035-.289a7.069,7.069,0,0,0,1.719,3.02,2.649,2.649,0,0,0,.958.51.9.9,0,0,0,.765-.162.806.806,0,0,0,.04-.765A7.19,7.19,0,0,0,154.5,86.4,4.142,4.142,0,0,0,152.289,85.306Zm.1-.687a8.092,8.092,0,0,0,4.292-.879,3.107,3.107,0,0,0,.838-.616.676.676,0,0,0,.18-.57c-.053-.138-.337-.224-.532-.258a1.449,1.449,0,0,0-.592.057A11.4,11.4,0,0,0,152.393,84.619Zm-15.412,2.792-.072.2c1.037.512,2.054,1.069,3.119,1.512a3.181,3.181,0,0,0,1.421.124c.478-.036.556-.271.231-.616a3.018,3.018,0,0,0-.892-.695A7.756,7.756,0,0,0,136.981,87.411Zm-.106-.912a10.091,10.091,0,0,0,2.8-2.1,2.34,2.34,0,0,0,.453-.768,2.018,2.018,0,0,0,.035-.62,2.289,2.289,0,0,0-.613.079C138.075,83.708,137.416,84.976,136.875,86.5Z" transform="translate(-132.478 -81.002)" fill="url(#linear-gradient)"/>
</svg>
