<svg xmlns="http://www.w3.org/2000/svg" width="211.944" height="50" viewBox="0 0 211.944 50">
  <g id="Group_52" data-name="Group 52" transform="translate(-742.814 -92.425)">
    <g id="Group_39" data-name="Group 39" transform="translate(742.312 92.425)">
      <g id="Group_16" data-name="Group 16" transform="translate(45.926)" opacity="0.559">
        <path id="Path_55" data-name="Path 55" d="M177.806,186.072q-.273-6.045-4.2-6.252a1.794,1.794,0,0,1,1.779-1.385q3.519-.159,4.854,3.921a12.58,12.58,0,0,1,.521,3.044,15.742,15.742,0,0,1-1.8,7.674q-3.866,7.843-13.121,10.025a23.439,23.439,0,0,1-4.609.667,21.25,21.25,0,0,1-3.181-.008,23.477,23.477,0,0,1-4.979,13.721q7.3,7.032,14.643,6.7,4.435-.2,6.578-2.06a5.058,5.058,0,0,0,2.038-4.081.5.5,0,0,1,.324-.474.725.725,0,0,1,.65-.029.618.618,0,0,1,.334.6q.115,2.526-2.416,5.095t-7.5,2.792q-7.961.358-16.324-6.547a20.265,20.265,0,0,1-13.619,5.754q-6.2.28-9.465-2.45a9.872,9.872,0,0,1-3.483-7.51,13.694,13.694,0,0,1,2.855-8.946,45.427,45.427,0,0,1,8.55-8.476,29.3,29.3,0,0,1-1.917-8.5,21.1,21.1,0,0,1,.624-6.546,8.325,8.325,0,0,1,3.466-4.719,12.329,12.329,0,0,1,6.581-2.021q3.9-.178,5.82,1.538a6.4,6.4,0,0,1,2.054,4.7,6.721,6.721,0,0,1-.541,3.322q-.635,1.257-1.025,1.964a8.671,8.671,0,0,1-1.3,1.67q-.917.959-1.428,1.482T146.8,192.3c-.838.7-1.43,1.189-1.773,1.459s-1.026.789-2.04,1.55-1.667,1.277-1.963,1.545a48.85,48.85,0,0,0,10.844,19.371,22.732,22.732,0,0,0,4.56-12.782q-5.347-1.289-5.526-5.195a2.662,2.662,0,0,1,1.42-2.517,4.079,4.079,0,0,1,2.083-.555c.894-.042,1.7.564,2.422,1.807a10.82,10.82,0,0,1,1.219,4.93,15.5,15.5,0,0,0,2.842.1q10.406-.469,14.813-8.185A14.107,14.107,0,0,0,177.806,186.072Zm-39.878,37.3a17.839,17.839,0,0,0,12.117-5.07,51.991,51.991,0,0,1-12.939-18.279q-8.483,7.513-8.107,15.779a8.18,8.18,0,0,0,2.286,5.648Q133.411,223.579,137.928,223.376Zm8.373-45.543q-7.272.328-6.8,10.735a33.58,33.58,0,0,0,.887,6.095,58.12,58.12,0,0,0,7.671-6.749,8.4,8.4,0,0,0,2.408-6.127Q150.28,177.652,146.3,177.833Zm7.842,19.122q-1.377.062-1.306,1.67.081,1.761,3.585,2.981Q156.054,196.871,154.143,196.955Z" transform="translate(-124.819 -176.035)" fill="#1a3f37"/>
      </g>
      <path id="Path_132" data-name="Path 132" d="M-13.86,0h-.99l-1.224-3.222h-6.174L-23.49,0H-24.5l4.806-12.6h1.026Zm-5.31-11.3-2.754,7.218h5.508Zm13.23-1.3a6.51,6.51,0,0,1,3.24.828A6.155,6.155,0,0,1-.369-9.495,6.2,6.2,0,0,1,.486-6.282a6.11,6.11,0,0,1-.855,3.2A6.2,6.2,0,0,1-2.7-.828,6.51,6.51,0,0,1-5.94,0h-4.266V-12.6Zm0,11.718a5.543,5.543,0,0,0,2.772-.711A5.288,5.288,0,0,0-1.179-3.537,5.292,5.292,0,0,0-.45-6.282a5.34,5.34,0,0,0-.729-2.754A5.335,5.335,0,0,0-3.168-11a5.489,5.489,0,0,0-2.772-.72H-9.27V-.882ZM4.878,0V-12.6H5.8V0ZM18.54-12.6v.882H14.526V0h-.918V-11.718H9.594V-12.6ZM22.356,0V-12.6h.918V0Z" transform="translate(25 19.585)" fill="#1a3f37"/>
      <path id="Path_131" data-name="Path 131" d="M-48.672.2a5.339,5.339,0,0,1-3-.81A3.975,3.975,0,0,1-53.334-2.79l.81-.468A3.589,3.589,0,0,0-51.156-1.4a4.189,4.189,0,0,0,2.484.7,4.039,4.039,0,0,0,1.818-.369,2.574,2.574,0,0,0,1.1-.972A2.469,2.469,0,0,0-45.4-3.33a1.775,1.775,0,0,0-.882-1.539,10.266,10.266,0,0,0-2.574-1.107q-1.458-.468-2.2-.783A3.261,3.261,0,0,1-52.3-7.7a2.533,2.533,0,0,1-.513-1.665,3.214,3.214,0,0,1,.513-1.818,3.41,3.41,0,0,1,1.386-1.2A4.42,4.42,0,0,1-48.96-12.8a4.364,4.364,0,0,1,2.547.729,4.455,4.455,0,0,1,1.575,1.935l-.81.414A3.439,3.439,0,0,0-46.9-11.3,3.522,3.522,0,0,0-48.96-11.9a3.273,3.273,0,0,0-1.593.36,2.557,2.557,0,0,0-1,.936,2.359,2.359,0,0,0-.342,1.224,1.682,1.682,0,0,0,.4,1.17,2.787,2.787,0,0,0,1,.7q.594.252,1.854.666,1.494.486,2.286.837a3.614,3.614,0,0,1,1.332,1,2.555,2.555,0,0,1,.54,1.692A3.291,3.291,0,0,1-45-1.458,3.392,3.392,0,0,1-46.476-.234,5.273,5.273,0,0,1-48.672.2Zm16.218-12.8h.936v8.334a4.816,4.816,0,0,1-.549,2.34A3.845,3.845,0,0,1-33.642-.36,4.934,4.934,0,0,1-36.036.2,4.882,4.882,0,0,1-38.421-.36a3.859,3.859,0,0,1-1.566-1.566,4.816,4.816,0,0,1-.549-2.34V-12.6h.936v8.334a3.555,3.555,0,0,0,.936,2.574,3.477,3.477,0,0,0,2.628.972,3.514,3.514,0,0,0,2.655-.963,3.568,3.568,0,0,0,.927-2.583ZM-17.586-.036-18.756,0l-5.382-6.174-1.35,1.35V0h-.936V-12.6h.936v6.444l6.5-6.444h1.278l-5.76,5.76ZM-5.472-6.894V-12.6h.936V0h-.936V-6.03H-12.78V0h-.936V-12.6h.936v5.706ZM6.84-12.582h.936v8.946a3.946,3.946,0,0,1-.513,2.052A3.4,3.4,0,0,1,5.841-.261,4.509,4.509,0,0,1,3.78.2a4.633,4.633,0,0,1-2.286-.54,3.911,3.911,0,0,1-1.548-1.6L.7-2.412A3.59,3.59,0,0,0,1.98-1.071a3.672,3.672,0,0,0,1.818.4,3.171,3.171,0,0,0,2.2-.756A2.815,2.815,0,0,0,6.84-3.636ZM12.888,0V-12.6h.918V0ZM23.022-1.242,27.288-12.6h.99L23.526,0H22.518l-4.77-12.6h1.008ZM40.014,0h-.99L37.8-3.222H31.626L30.384,0H29.376l4.806-12.6h1.026ZM34.7-11.3,31.95-4.086h5.508Zm16.92,9.576V-12.6h.936V0h-.882L44.46-11.088V0h-.936V-12.6h.954Z" transform="translate(159.886 31)" fill="#1a3f37"/>
    </g>
  </g>
</svg>
